<svg xmlns="http://www.w3.org/2000/svg" viewBox="0 0 512 512" role="img" aria-label="North Calder Colts badge">
  <defs>
    <linearGradient id="ring" x1="0" y1="0" x2="1" y2="1">
      <stop offset="0" stop-color="#0d1638"/>
      <stop offset="1" stop-color="#1b2f68"/>
    </linearGradient>
    <linearGradient id="core" x1="0" y1="0" x2="0" y2="1">
      <stop offset="0" stop-color="#f7fbff"/>
      <stop offset="1" stop-color="#d9e7f6"/>
    </linearGradient>
  </defs>
  <circle cx="256" cy="256" r="252" fill="url(#ring)"/>
  <circle cx="256" cy="256" r="198" fill="url(#core)"/>
  <path d="M132 336c42-34 90-40 124-78 20-23 20-57 8-89 28 21 62 52 78 90 16 40 7 90-44 128-51 38-132 38-166-51z" fill="#111a45"/>
  <path d="M284 184c42 22 96 66 88 128-6 50-52 84-98 96 28-22 58-44 65-79 10-49-14-96-55-145z" fill="#3e72ab"/>
  <text x="256" y="86" fill="#ffffff" font-family="Rajdhani, Arial, sans-serif" font-size="44" text-anchor="middle" font-weight="700">NORTH CALDER COLTS</text>
  <text x="256" y="458" fill="#ffffff" font-family="Rajdhani, Arial, sans-serif" font-size="50" text-anchor="middle" font-weight="700">FOOTBALL CLUB</text>
</svg>
